HIERARCHY
ROOT joint_Root
{
	OFFSET 0.0 0.0 0.0
	CHANNELS 6 Xposition Yposition Zposition Zrotation Xrotation Yrotation 
	JOINT Hips
	{
		OFFSET -17.1583 93.1646 452.98
		CHANNELS 6 Xposition Yposition Zposition Zrotation Xrotation Yrotation 
		JOINT Spine
		{
			OFFSET 15.7357 0.0 0.0
			CHANNELS 6 Xposition Yposition Zposition Zrotation Xrotation Yrotation 
			JOINT Chest
			{
				OFFSET 8.98455 -0.406207 0.0
				CHANNELS 6 Xposition Yposition Zposition Zrotation Xrotation Yrotation 
				JOINT Neck
				{
					OFFSET 16.3773 0.0 0.0
					CHANNELS 6 Xposition Yposition Zposition Zrotation Xrotation Yrotation 
					JOINT Head
					{
						OFFSET 6.45672 0.0 0.0
						CHANNELS 6 Xposition Yposition Zposition Zrotation Xrotation Yrotation 
						End Site
						{
							OFFSET 0.0 0.0 0.0
						}
					}
				}
				JOINT Shoulder_L
				{
					OFFSET 12.9942 -0.242716 4.98039
					CHANNELS 6 Xposition Yposition Zposition Zrotation Xrotation Yrotation 
					JOINT UpperArm_L
					{
						OFFSET 5.34809 0.0 0.0
						CHANNELS 6 Xposition Yposition Zposition Zrotation Xrotation Yrotation 
						JOINT LowerArm_L
						{
							OFFSET 24.3286 1.87007e-05 0.0
							CHANNELS 6 Xposition Yposition Zposition Zrotation Xrotation Yrotation 
							JOINT Hand_L
							{
								OFFSET 22.2916 0.0 0.0
								CHANNELS 6 Xposition Yposition Zposition Zrotation Xrotation Yrotation 
								End Site
								{
									OFFSET 0.0 0.0 0.0
								}
							}
						}
					}
				}
				JOINT Shoulder_R
				{
					OFFSET 12.9945 -0.242716 -4.98039
					CHANNELS 6 Xposition Yposition Zposition Zrotation Xrotation Yrotation 
					JOINT UpperArm_R
					{
						OFFSET -5.34813 0.0 0.0
						CHANNELS 6 Xposition Yposition Zposition Zrotation Xrotation Yrotation 
						JOINT LowerArm_R
						{
							OFFSET -24.3289 0.000322201 0.0
							CHANNELS 6 Xposition Yposition Zposition Zrotation Xrotation Yrotation 
							JOINT Hand_R
							{
								OFFSET -22.2915 -0.000108084 0.0
								CHANNELS 6 Xposition Yposition Zposition Zrotation Xrotation Yrotation 
								End Site
								{
									OFFSET 0.0 0.0 0.0
								}
							}
						}
					}
				}
			}
		}
		JOINT UpperLeg_L
		{
			OFFSET -2.19248 -6.46944 0.0
			CHANNELS 6 Xposition Yposition Zposition Zrotation Xrotation Yrotation 
			JOINT LowerLeg_L
			{
				OFFSET 39.0811 0.0 -1.23785e-05
				CHANNELS 6 Xposition Yposition Zposition Zrotation Xrotation Yrotation 
				JOINT Foot_L
				{
					OFFSET 40.9854 0.0 -1.26872e-05
					CHANNELS 6 Xposition Yposition Zposition Zrotation Xrotation Yrotation 
					JOINT Toes_L
					{
						OFFSET 11.7543 0.0 0.0
						CHANNELS 6 Xposition Yposition Zposition Zrotation Xrotation Yrotation 
						End Site
						{
							OFFSET 0.0 0.0 0.0
						}
					}
				}
			}
		}
		JOINT UpperLeg_R
		{
			OFFSET -2.19251 6.46944 0.0
			CHANNELS 6 Xposition Yposition Zposition Zrotation Xrotation Yrotation 
			JOINT LowerLeg_R
			{
				OFFSET -39.0811 -0.00228153 -0.0401928
				CHANNELS 6 Xposition Yposition Zposition Zrotation Xrotation Yrotation 
				JOINT Foot_R
				{
					OFFSET -40.9854 0.0 0.0
					CHANNELS 6 Xposition Yposition Zposition Zrotation Xrotation Yrotation 
					JOINT Toes_R
					{
						OFFSET -11.7543 0.0 0.0
						CHANNELS 6 Xposition Yposition Zposition Zrotation Xrotation Yrotation 
						End Site
						{
							OFFSET 0.0 0.0 0.0
						}
					}
				}
			}
		}
	}
}
MOTION
Frames:	9
Frame Time:	0.0333333
0.000000 0.000000 0.000000 0.000000 0.000000 -0.000000 1.005190 93.015500 0.250526 86.588700 -0.201612 -1.936480 15.735700 0.000005 -0.000001 69.246400 88.935200 -67.540700 8.984550 -0.406207 -0.000000 -5.758560 -0.954731 3.367290 16.377300 -0.000001 -0.000001 3.464070 1.739480 -1.926870 6.456720 -0.000001 -0.000000 7.520050 1.365880 -0.333622 12.994200 -0.242716 4.980390 -92.224200 7.011780 -72.350900 5.348090 -0.000007 -0.000001 -73.845600 27.990100 1.290840 24.328600 0.000019 0.000005 14.061500 30.984900 -25.943900 22.291600 -0.000001 0.000005 -3.609330 5.040160 6.453190 12.994500 -0.242716 -4.980390 88.844500 3.890040 -73.441900 -5.348130 -0.000001 -0.000004 -74.103400 21.426200 -0.653702 -24.328900 0.000322 -0.000009 1.363960 4.338210 -17.484900 -22.291500 -0.000108 -0.000004 -3.201880 5.153260 3.865360 -2.192480 -6.469440 -0.000000 -177.607000 0.157047 -4.601570 39.081100 -0.000007 -0.000012 0.196738 -0.581680 18.687100 40.985400 -0.000006 -0.000013 3.516810 7.006930 -71.865000 11.754300 -0.000000 0.000003 -0.000071 0.168815 -9.729710 -2.192510 6.469440 -0.000001 -175.623000 6.674030 -179.991000 -39.081100 -0.002282 -0.040193 -0.000664 0.020643 10.969400 -40.985400 0.000008 0.000006 -5.095950 1.386490 -67.742500 -11.754300 -0.000006 -0.000006 -0.009816 0.269926 -5.607390
0.000000 0.000000 0.000000 0.000000 0.000000 -0.000000 0.976379 93.048000 0.184853 86.643900 -0.183492 -2.094330 15.735700 0.000005 -0.000001 69.232600 88.926200 -67.544700 8.984550 -0.406207 -0.000000 -5.741930 -0.959300 3.331600 16.377300 -0.000001 -0.000001 3.168930 1.653390 -1.754060 6.456720 -0.000001 -0.000000 7.284220 1.324780 -0.274605 12.994200 -0.242716 4.980390 -92.193500 6.945950 -72.425900 5.348090 -0.000007 -0.000001 -73.881900 28.081100 1.172660 24.328600 0.000019 0.000005 14.029700 30.889400 -25.953500 22.291600 -0.000001 0.000005 -3.633410 5.038080 6.498690 12.994500 -0.242716 -4.980390 88.874100 3.798140 -73.475200 -5.348130 -0.000001 -0.000004 -73.753400 21.015100 -1.080220 -24.328900 0.000322 -0.000009 1.261490 3.979480 -17.618400 -22.291500 -0.000108 -0.000004 -3.254000 5.153690 3.854880 -2.192480 -6.469440 -0.000000 -177.621000 0.083406 -4.728170 39.081100 -0.000007 -0.000012 0.190708 -0.570114 18.495900 40.985400 -0.000006 -0.000013 3.326050 7.112320 -71.670100 11.754300 -0.000000 0.000003 -0.000074 0.168866 -9.727620 -2.192510 6.469440 -0.000001 -175.628000 6.697440 179.834000 -39.081100 -0.002282 -0.040193 -0.000270 0.018741 10.895900 -40.985400 0.000008 0.000006 -4.986040 1.405590 -67.655700 -11.754300 -0.000006 -0.000006 -0.009864 0.270289 -5.592530
0.000000 0.000000 0.000000 0.000000 0.000000 -0.000000 0.937436 93.076800 0.115351 86.712900 -0.141021 -2.252590 15.735700 0.000005 -0.000001 69.226100 88.912700 -67.563600 8.984550 -0.406207 -0.000000 -5.717100 -0.965695 3.280690 16.377300 -0.000001 -0.000001 2.809970 1.572590 -1.611720 6.456720 -0.000001 -0.000000 7.032700 1.247570 -0.072429 12.994200 -0.242716 4.980390 -92.152000 6.867290 -72.553500 5.348090 -0.000007 -0.000001 -73.964500 28.048800 1.052540 24.328600 0.000019 0.000005 14.054000 30.992100 -25.926700 22.291600 -0.000001 0.000005 -3.508460 5.042510 6.401750 12.994500 -0.242716 -4.980390 88.909100 3.697580 -73.549700 -5.348130 -0.000001 -0.000004 -73.253700 20.501500 -1.505150 -24.328900 0.000322 -0.000009 1.312850 4.068090 -17.916100 -22.291500 -0.000108 -0.000004 -3.415270 5.152210 3.890370 -2.192480 -6.469440 -0.000000 -177.649000 0.022612 -4.819240 39.081100 -0.000007 -0.000012 0.183682 -0.557460 18.237300 40.985400 -0.000006 -0.000013 3.326810 7.234100 -71.449200 11.754300 -0.000000 0.000003 0.000021 0.167269 -9.792470 -2.192510 6.469440 -0.000001 -175.651000 6.774840 179.681000 -39.081100 -0.002282 -0.040193 0.000152 0.016746 10.771700 -40.985400 0.000008 0.000006 -4.986250 1.417800 -67.534400 -11.754300 -0.000006 -0.000006 -0.009750 0.269424 -5.627930
0.000000 0.000000 0.000000 0.000000 0.000000 -0.000000 0.891958 93.113000 0.023119 86.753700 -0.043361 -2.421520 15.735700 0.000005 -0.000001 69.399000 88.891900 -67.760300 8.984550 -0.406207 -0.000000 -5.675970 -0.970832 3.232840 16.377300 -0.000001 -0.000001 2.418280 1.438830 -1.416190 6.456720 -0.000001 -0.000000 6.662070 1.133280 0.165889 12.994200 -0.242716 4.980390 -92.102200 6.749610 -72.655800 5.348090 -0.000007 -0.000001 -74.045500 28.012800 0.891655 24.328600 0.000019 0.000005 14.144000 31.103600 -26.003800 22.291600 -0.000001 0.000005 -3.693630 5.045220 6.341960 12.994500 -0.242716 -4.980390 88.935000 3.617020 -73.581900 -5.348130 -0.000001 -0.000004 -72.536000 19.982400 -2.033190 -24.328900 0.000322 -0.000009 1.436620 4.367350 -18.240900 -22.291500 -0.000108 -0.000004 -3.750400 5.156860 3.778610 -2.192480 -6.469440 -0.000000 -177.621000 0.049050 -4.988750 39.081100 -0.000007 -0.000012 0.174598 -0.535548 18.057200 40.985400 -0.000006 -0.000013 3.121960 7.347700 -71.243700 11.754300 -0.000000 0.000003 -0.000026 0.168067 -9.760060 -2.192510 6.469440 -0.000001 -175.623000 6.824590 179.477000 -39.081100 -0.002282 -0.040193 0.000571 0.014649 10.695700 -40.985400 0.000008 0.000006 -4.944060 1.380950 -67.432700 -11.754300 -0.000006 -0.000006 -0.009753 0.269449 -5.626900
0.000000 0.000000 0.000000 0.000000 0.000000 -0.000000 0.836243 93.142100 -0.088771 86.766100 0.118266 -2.625340 15.735700 0.000005 -0.000001 69.208700 88.864300 -67.583800 8.984550 -0.406207 -0.000000 -5.626870 -0.994946 3.204450 16.377300 -0.000001 -0.000001 1.971700 1.222800 -1.145090 6.456720 -0.000001 -0.000000 6.241040 1.010110 0.331039 12.994200 -0.242716 4.980390 -92.050200 6.651040 -72.825000 5.348090 -0.000007 -0.000001 -74.119600 28.004200 0.731344 24.328600 0.000019 0.000005 14.043300 30.855700 -25.998500 22.291600 -0.000001 0.000005 -3.505450 5.041020 6.434500 12.994500 -0.242716 -4.980390 88.957800 3.544940 -73.605400 -5.348130 -0.000001 -0.000004 -71.596200 19.428500 -2.658090 -24.328900 0.000322 -0.000009 1.494670 4.448830 -18.604200 -22.291500 -0.000108 -0.000004 -4.022290 5.158760 3.733030 -2.192480 -6.469440 -0.000000 -177.553000 0.103019 -5.281780 39.081100 -0.000007 -0.000012 0.168622 -0.518976 17.999900 40.985400 -0.000006 -0.000013 2.849820 7.515780 -70.993800 11.754300 -0.000000 0.000003 0.000188 0.164393 -9.909270 -2.192510 6.469440 -0.000001 -175.553000 6.918830 179.232000 -39.081100 -0.002282 -0.040193 0.001044 0.012261 10.594600 -40.985400 0.000008 0.000006 -4.985160 1.315300 -67.272400 -11.754300 -0.000006 -0.000006 -0.009656 0.268714 -5.656940
0.000000 0.000000 0.000000 0.000000 0.000000 -0.000000 0.784553 93.176300 -0.177349 86.805400 0.259142 -2.739640 15.735700 0.000005 -0.000001 69.511600 88.812100 -67.904400 8.984550 -0.406207 -0.000000 -5.524690 -1.016800 3.168720 16.377300 -0.000001 -0.000001 1.560610 1.033310 -0.939502 6.456720 -0.000001 -0.000000 5.775990 0.815840 0.613679 12.994200 -0.242716 4.980390 -92.012900 6.573100 -72.932400 5.348090 -0.000007 -0.000001 -74.147600 28.110000 0.592993 24.328600 0.000019 0.000005 14.112400 30.786300 -26.160000 22.291600 -0.000001 0.000005 -3.458530 5.040660 6.442220 12.994500 -0.242716 -4.980390 88.984100 3.477050 -73.701800 -5.348130 -0.000001 -0.000004 -70.565100 18.359500 -3.221810 -24.328900 0.000322 -0.000009 1.518430 4.394950 -19.093600 -22.291500 -0.000108 -0.000004 -4.059430 5.153530 3.858760 -2.192480 -6.469440 -0.000000 -177.510000 0.220159 -5.439320 39.081100 -0.000007 -0.000012 0.159137 -0.492958 17.891400 40.985400 -0.000006 -0.000013 2.503300 7.608520 -70.811200 11.754300 -0.000000 0.000003 -0.000050 0.168457 -9.744250 -2.192510 6.469440 -0.000001 -175.528000 7.030510 179.113000 -39.081100 -0.002282 -0.040193 0.001285 0.011105 10.474300 -40.985400 0.000008 0.000006 -4.923080 1.277320 -67.162400 -11.754300 -0.000006 -0.000006 -0.009604 0.268321 -5.673020
0.000000 0.000000 0.000000 0.000000 0.000000 -0.000000 0.737617 93.198400 -0.278103 86.823300 0.346611 -2.864330 15.735700 0.000005 -0.000001 71.742200 88.766000 -70.146100 8.984550 -0.406207 -0.000000 -5.407360 -0.955628 3.150350 16.377300 -0.000001 -0.000001 1.097780 0.828639 -0.750455 6.456720 -0.000001 -0.000000 5.367390 0.563884 0.942376 12.994200 -0.242716 4.980390 -91.972500 6.497410 -73.072200 5.348090 -0.000007 -0.000001 -74.140500 28.257900 0.367745 24.328600 0.000019 0.000005 14.085700 30.635500 -26.215700 22.291600 -0.000001 0.000005 -3.464810 5.040980 6.435450 12.994500 -0.242716 -4.980390 89.019500 3.367920 -73.758000 -5.348130 -0.000001 -0.000004 -69.509600 16.692400 -3.763370 -24.328900 0.000322 -0.000009 1.624620 4.501420 -19.881000 -22.291500 -0.000108 -0.000004 -3.817600 5.149160 3.963460 -2.192480 -6.469440 -0.000000 -177.468000 0.233723 -5.632730 39.081100 -0.000007 -0.000012 0.154793 -0.481366 17.826400 40.985400 -0.000006 -0.000013 2.347150 7.721410 -70.597400 11.754300 -0.000000 0.000003 0.000051 0.166758 -9.813260 -2.192510 6.469440 -0.000001 -175.481000 7.035980 178.943000 -39.081100 -0.002282 -0.040193 0.001643 0.009235 10.403300 -40.985400 0.000008 0.000006 -4.930120 1.211320 -67.034500 -11.754300 -0.000006 -0.000006 -0.009579 0.268131 -5.680790
0.000000 0.000000 0.000000 0.000000 0.000000 -0.000000 0.686060 93.231700 -0.381687 86.868500 0.427771 -2.918690 15.735700 0.000005 -0.000001 73.498900 88.692400 -71.918900 8.984550 -0.406207 -0.000000 -5.244190 -0.921226 3.120720 16.377300 -0.000001 -0.000001 0.689592 0.618505 -0.561129 6.456720 -0.000001 -0.000000 4.896670 0.348848 1.274920 12.994200 -0.242716 4.980390 -91.936700 6.403900 -73.134500 5.348090 -0.000007 -0.000001 -74.146100 28.399200 0.176414 24.328600 0.000019 0.000005 14.170800 30.638700 -26.356400 22.291600 -0.000001 0.000005 -3.366260 5.039910 6.458750 12.994500 -0.242716 -4.980390 89.048200 3.279400 -73.806500 -5.348130 -0.000001 -0.000004 -68.390100 14.451000 -4.086020 -24.328900 0.000322 -0.000009 1.833090 4.655360 -21.530300 -22.291500 -0.000108 -0.000004 -3.316130 5.141160 4.153690 -2.192480 -6.469440 -0.000000 -177.433000 0.288919 -5.705900 39.081100 -0.000007 -0.000012 0.144659 -0.454097 17.670200 40.985400 -0.000006 -0.000013 2.077810 7.840050 -70.355000 11.754300 -0.000000 0.000003 0.000062 0.166570 -9.820860 -2.192510 6.469440 -0.000001 -175.469000 7.088180 178.855000 -39.081100 -0.002282 -0.040193 0.001843 0.008209 10.320300 -40.985400 0.000008 0.000006 -4.851690 1.178840 -66.946100 -11.754300 -0.000006 -0.000006 -0.009705 0.269088 -5.641670
0.000000 0.000000 0.000000 0.000000 0.000000 -0.000000 0.628515 93.263400 -0.503044 86.917700 0.524524 -3.003450 15.735700 0.000005 -0.000001 74.928800 88.608100 -73.358900 8.984550 -0.406207 -0.000000 -5.064030 -0.898732 3.102770 16.377300 -0.000001 -0.000001 0.297310 0.432030 -0.391580 6.456720 -0.000001 -0.000000 4.300810 0.139600 1.642550 12.994200 -0.242716 4.980390 -91.919100 6.353650 -73.154700 5.348090 -0.000007 -0.000001 -74.127500 28.334100 -0.049960 24.328600 0.000019 0.000005 14.131800 30.404700 -26.448900 22.291600 -0.000001 0.000005 -3.277320 5.037550 6.510260 12.994500 -0.242716 -4.980390 89.058800 3.247290 -73.826800 -5.348130 -0.000001 -0.000004 -67.305700 11.052800 -4.160140 -24.328900 0.000322 -0.000009 2.424910 5.372770 -24.342400 -22.291500 -0.000108 -0.000004 -3.099140 5.127860 4.467590 -2.192480 -6.469440 -0.000000 -177.401000 0.215915 -5.842120 39.081100 -0.000007 -0.000012 0.137194 -0.433971 17.543800 40.985400 -0.000006 -0.000013 1.786180 8.036880 -70.089200 11.754300 -0.000000 0.000003 0.000053 0.166727 -9.814500 -2.192510 6.469440 -0.000001 -175.452000 7.206850 178.708000 -39.081100 -0.002282 -0.040193 0.002168 0.006467 10.255800 -40.985400 0.000008 0.000006 -4.863740 1.173260 -66.831100 -11.754300 -0.000006 -0.000006 -0.009889 0.270473 -5.585000
